<?xml version="1.0" encoding="UTF-8"?>
<svg width="521px" height="161px" viewBox="0 0 521 161" version="1.1" xmlns="http://www.w3.org/2000/svg" xmlns:xlink="http://www.w3.org/1999/xlink">
    <title>ars-logo</title>
    <defs>
        <linearGradient x1="0%" y1="33.4416162%" x2="65.5938864%" y2="73.3495069%" id="linearGradient-1">
            <stop stop-color="#FEE159" offset="0%"></stop>
            <stop stop-color="#FDBC24" offset="30.560704%"></stop>
            <stop stop-color="#EDAC12" offset="56.6526196%"></stop>
            <stop stop-color="#FEE159" offset="100%"></stop>
        </linearGradient>
    </defs>
    <g id="Page-1" stroke="none" stroke-width="1" fill="none" fill-rule="evenodd">
        <g id="Artboard-Copy-2" transform="translate(-1097.000000, -460.000000)">
            <g id="ars-logo" transform="translate(1097.000000, 460.000000)">
                <g id="Group-2-Copy-2">
                    <polygon id="Combined-Shape" fill="#28B0A8" fill-rule="nonzero" points="7.10542736e-15 100 38 62 95.855 62 57.598 100"></polygon>
                    <path d="M38,0 L128,0 C136.836556,-1.623249e-15 144,7.163444 144,16 L144,123 L144,123 L106,161 L106,38 L0,38 L38,0 Z" id="Rectangle" fill=""></path>
                    <path d="M0,100 L38,100 L38,123 L106,123 L106,161 L16,161 C7.163444,161 -4.24690452e-15,153.836556 0,145 L0,100 L0,100 Z" id="Rectangle" fill="url(#linearGradient-1)"></path>
                </g>
                <path d="M248.499151,138 C256.445954,138 263.416242,136.383275 269.410017,133.149826 C275.403792,129.916376 280.084324,125.672474 283.451613,120.418118 L283.451613,120.418118 L283.451613,136.383275 L318,136.383275 L318,23.6167247 L283.451613,23.6167247 L283.451613,39.5818815 C280.219015,34.3275261 275.605829,30.0836237 269.612054,26.8501742 C263.61828,23.6167247 256.647991,22 248.701188,22 C239.40747,22 230.989247,24.3577236 223.44652,29.0731707 C215.903792,33.7886179 209.94369,40.524971 205.566214,49.28223 C201.188738,58.039489 199,68.2113821 199,79.7979094 C199,91.3844367 201.188738,101.590012 205.566214,110.414634 C209.94369,119.239257 215.903792,126.042973 223.44652,130.825784 C230.989247,135.608595 239.340125,138 248.499151,138 Z M258.5,108 C251.672131,108 245.881831,105.463768 241.129098,100.391304 C236.376366,95.3188406 234,88.4541063 234,79.7971014 C234,71.1400966 236.376366,64.3429952 241.129098,59.4057971 C245.881831,54.468599 251.672131,52 258.5,52 C265.327869,52 271.118169,54.5024155 275.870902,59.5072464 C280.623634,64.5120773 283,71.3429952 283,80 C283,88.6570048 280.623634,95.4879227 275.870902,100.492754 C271.118169,105.497585 265.327869,108 258.5,108 Z M377.595376,136 L377.595376,83.6489362 C377.595376,74.3510638 379.753372,67.8492908 384.069364,64.143617 C388.385356,60.4379433 394.859345,58.5851064 403.491329,58.5851064 L403.491329,58.5851064 L413,58.5851064 L413,22 C405.581888,22 398.83815,23.785461 392.768786,27.356383 C386.699422,30.927305 381.641618,35.8120567 377.595376,42.0106383 L377.595376,42.0106383 L377.595376,23.212766 L343,23.212766 L343,136 L377.595376,136 Z M475.612836,138 C484.717046,138 492.716701,136.518002 499.611801,133.554007 C506.506901,130.590012 511.795376,126.514518 515.477226,121.327526 C519.159075,116.140534 521,110.246225 521,103.644599 C520.866115,95.8304297 518.824362,89.5993031 514.874741,84.9512195 C510.925121,80.3031359 506.339545,76.9349593 501.118012,74.8466899 C495.89648,72.7584204 489.135266,70.6364692 480.834369,68.4808362 C473.604555,66.8641115 468.282609,65.2473868 464.86853,63.630662 C461.454451,62.0139373 459.747412,59.5888502 459.747412,56.3554007 C459.747412,53.6608595 460.818496,51.5389082 462.960663,49.989547 C465.10283,48.4401858 468.182195,47.6655052 472.198758,47.6655052 C476.884748,47.6655052 480.667012,48.8106852 483.545549,51.1010453 C486.424086,53.3914053 488.131125,56.4901278 488.666667,60.3972125 L488.666667,60.3972125 L520.397516,60.3972125 C519.192547,48.8106852 514.540028,39.514518 506.439959,32.5087108 C498.33989,25.5029036 487.26087,22 473.202899,22 C463.697032,22 455.496549,23.5493612 448.601449,26.6480836 C441.706349,29.746806 436.484817,33.9570267 432.936853,39.2787456 C429.388889,44.6004646 427.614907,50.4947735 427.614907,56.9616725 C427.614907,64.641115 429.556246,70.7375145 433.438923,75.2508711 C437.321601,79.7642276 441.940649,83.0650407 447.296066,85.1533101 C452.651484,87.2415796 459.345756,89.2288037 467.378882,91.1149826 C474.876467,93.0011614 480.298827,94.7189315 483.645963,96.2682927 C486.993099,97.8176539 488.666667,100.209059 488.666667,103.442509 C488.666667,106.13705 487.495169,108.326365 485.152174,110.010453 C482.809179,111.694541 479.495514,112.536585 475.21118,112.536585 C470.52519,112.536585 466.575569,111.324042 463.362319,108.898955 C460.149068,106.473868 458.341615,103.307782 457.939959,99.4006969 L457.939959,99.4006969 L424,99.4006969 C424.535542,106.675958 427.012422,113.243902 431.430642,119.10453 C435.848861,124.965157 441.873706,129.579559 449.505176,132.947735 C457.136646,136.315912 465.839199,138 475.612836,138 Z" id="ars-typo" fill="#073A37" fill-rule="nonzero"></path>
            </g>
        </g>
    </g>
</svg>